<?xml version="1.0" encoding="UTF-8"?>
<svg id="_レイヤー_2" data-name="レイヤー 2" xmlns="http://www.w3.org/2000/svg" viewBox="0 0 158 120">
  <defs>
    <style>
      .cls-1, .cls-2, .cls-3 {
        fill: none;
      }

      .cls-1, .cls-3, .cls-4 {
        stroke: #5d5a55;
        stroke-linecap: round;
        stroke-linejoin: round;
      }

      .cls-1, .cls-4 {
        stroke-width: 3px;
      }

      .cls-2 {
        stroke-width: 0px;
      }

      .cls-3 {
        stroke-width: 2.76px;
      }

      .cls-4 {
        fill: #c7161d;
      }
    </style>
  </defs>
  <g id="_レイヤー_1-2" data-name="レイヤー 1">
    <g>
      <rect class="cls-2" x="19" y="-19" width="120" height="158" transform="translate(139 -19) rotate(90)"/>
      <g>
        <g>
          <g>
            <path class="cls-1" d="m103.38,55.6v37.96c0,5.13-4.16,9.3-9.3,9.3h-53.43c-5.13,0-9.3-4.16-9.3-9.3v-37.96c0-5.13,4.16-9.3,9.3-9.3h40.04"/>
            <g>
              <circle class="cls-1" cx="54.05" cy="65.54" r="7.07" transform="translate(-22.76 101.84) rotate(-75.78)"/>
              <circle class="cls-1" cx="80.7" cy="65.54" r="7.07" transform="translate(-23.19 69.52) rotate(-41.28)"/>
            </g>
            <path class="cls-1" d="m84.06,84.03c-4.11,4.56-10.06,7.43-16.68,7.43s-12.58-2.87-16.68-7.43"/>
            <path class="cls-4" d="m26.05,60.01h5.32v29.13h-5.32c-4.71,0-8.53-3.82-8.53-8.53v-12.08c0-4.71,3.82-8.53,8.53-8.53Z"/>
            <path class="cls-4" d="m111.91,60.01h5.32v29.13h-5.32c-4.71,0-8.53-3.82-8.53-8.53v-12.08c0-4.71,3.82-8.53,8.53-8.53Z" transform="translate(220.62 149.15) rotate(180)"/>
            <path class="cls-1" d="m111.45,89.14v16.99c0,4.6-3.73,8.33-8.33,8.33h-28.65"/>
            <rect class="cls-4" x="62.73" y="111.13" width="10.96" height="6.69"/>
            <g>
              <line class="cls-1" x1="46.04" y1="46.37" x2="46.04" y2="32.57"/>
              <path class="cls-4" d="m49.42,28.83c0,1.87-1.51,3.38-3.38,3.38s-3.38-1.51-3.38-3.38,1.51-3.38,3.38-3.38,3.38,1.51,3.38,3.38Z"/>
            </g>
          </g>
          <path class="cls-1" d="m140.48,22.09c0-10.99-17.45-19.91-38.96-19.91s-38.96,8.91-38.96,19.91c0,9.5,13.02,17.43,30.43,19.42l-.09,9.16,11.09-8.72c20.37-.65,36.5-9.29,36.5-19.86Z"/>
        </g>
        <text x="101" y="27" text-anchor="middle" fill="#5d5a55" font-size="14" font-weight="700" font-family="sans-serif" letter-spacing="-0.5">24h</text>
      </g>
    </g>
  </g>
</svg>